<?xml version="1.0" encoding="UTF-8"?>
<svg width="26px" height="26px" viewBox="0 0 26 26" version="1.1" xmlns="http://www.w3.org/2000/svg" xmlns:xlink="http://www.w3.org/1999/xlink">
    <!-- Generator: Sketch 48.1 (47250) - http://www.bohemiancoding.com/sketch -->
    <title>custom-icon-demo--question</title>
    <desc>Created with Sketch.</desc>
    <defs></defs>
    <g id="Editor-UI:-L" stroke="none" stroke-width="1" fill="none" fill-rule="evenodd">
        <g id="custom-icon-demo--question">
            <path d="M13,5 C15.2034533,5 17.0876301,5.7824658 18.6525834,7.34741664 C20.2175342,8.91236988 21,10.7965467 21,13 C21,15.2034533 20.2175342,17.0876301 18.6525834,18.6525822 C17.0876301,20.2175352 15.2034533,21 13,21 C10.7965467,21 8.91236988,20.2175352 7.34741784,18.6525822 C5.78246484,17.0876301 5,15.2034533 5,13 C5,10.7965467 5.78246484,8.91236988 7.34741784,7.34741664 C8.91236988,5.7824658 10.7965467,5 13,5 Z" id="Page-1" fill="#4A79E2"></path>
            <path d="M11.8581987,15 C11.8624402,14.3853842 11.9504499,13.9354044 12.1222305,13.650047 C12.2940112,13.3646897 12.6365069,13.017876 13.1497281,12.6095955 C13.4508744,12.3549689 13.6915758,12.080591 13.8718394,11.7864534 C14.052103,11.4923159 14.1422335,11.1630623 14.1422335,10.798683 C14.1422335,10.3947926 14.0393787,10.0787092 13.8336661,9.85042333 C13.6279535,9.62213746 13.3342342,9.50799624 12.9524995,9.50799624 C12.6386287,9.50799624 12.3724787,9.60457727 12.1540416,9.79774224 C11.9356045,9.99090721 11.8242669,10.2740652 11.8200254,10.6472248 L10.0131566,10.6472248 L10.0004322,10.607714 C9.98770767,9.76481234 10.2559783,9.11947543 10.8052522,8.67168391 C11.3545261,8.2238924 12.070268,8 12.9524995,8 C13.9025949,8 14.6480268,8.24913517 15.1888177,8.74741298 C15.7296086,9.24569079 16,9.92285555 16,10.7789276 C16,11.3364719 15.8420066,11.8523024 15.5260151,12.3264346 C15.2100235,12.8005668 14.8145098,13.1978661 14.3394621,13.5183443 C14.0807308,13.7246796 13.9110735,13.9321093 13.830485,14.1406397 C13.7498966,14.3491701 13.7096029,14.6356206 13.7096029,15 L11.8581987,15 Z" id="?" fill="#FFFFFF"></path>
            <polygon id="Combined-Shape-Copy" fill="#FFFFFF" points="14 18 14 16 12 16 12 18"></polygon>
        </g>
    </g>
</svg>